<svg width="46" height="32" viewBox="0 0 46 32" fill="none" xmlns="http://www.w3.org/2000/svg">
<path d="M0.019531 25.0391L0 25.4688C0.247391 25.4688 0.546871 25.4623 0.898441 25.4492C2.73437 25.3711 4.06901 25.332 4.90234 25.332C5.39713 25.332 5.96354 25.3581 6.60156 25.4102C7.59114 25.4883 8.41797 25.5339 9.08203 25.5469C9.49868 25.5599 9.77868 25.5664 9.92188 25.5664C10.0651 25.5794 10.1888 25.586 10.293 25.586C10.4362 25.586 10.5469 25.5534 10.625 25.4883C10.6771 25.4492 10.7031 25.3972 10.7031 25.332L10.586 25.1367C10.2735 25.0196 9.81768 24.8959 9.21875 24.7656C8.32031 24.5703 7.8125 24.4336 7.69531 24.3555C7.52604 24.2513 7.40885 24.0625 7.34375 23.7891C7.21354 23.2031 7.14844 22.0182 7.14844 20.2344C7.14844 19.9349 7.15495 19.5573 7.16797 19.1016C7.23307 16.862 7.26562 15.6315 7.26562 15.4102L7.24609 14.043C7.24609 13.7305 7.29818 13.5156 7.40234 13.3985C7.51953 13.2813 7.72786 13.2227 8.02734 13.2227C8.09245 13.2227 8.42448 13.2162 9.02344 13.2031C9.33598 13.1901 9.72008 13.1836 10.1758 13.1836C11.0222 13.1836 11.9401 13.2031 12.9297 13.2422C13.9323 13.2682 14.5899 13.2813 14.9024 13.2813C15.2149 13.2813 15.6836 13.2617 16.3086 13.2227C19.4206 13.0534 21.1524 13.0274 21.5039 13.1446C21.6081 13.1836 21.6797 13.2943 21.7188 13.4766C21.7578 15.599 21.7774 17.2136 21.7774 18.3203C21.7774 18.3985 21.7578 18.8607 21.7188 19.707L21.7383 22.5196C21.7383 22.9753 21.6146 23.3203 21.3672 23.5547C20.9896 23.9063 20.4753 24.1146 19.8242 24.1797C18.9518 24.2709 18.3138 24.4336 17.9102 24.668C17.8841 24.8242 17.8711 24.9479 17.8711 25.0391C17.8711 25.1172 17.8841 25.2409 17.9102 25.4102C19.5378 25.1628 20.6055 25.0196 21.1133 24.9805C21.6341 24.9414 22.5065 24.9219 23.7305 24.9219C25.293 24.9219 26.7839 25.0521 28.2031 25.3125C28.3073 25.3386 28.3919 25.3516 28.4571 25.3516L28.5547 25.332L28.6133 25.0977C28.6133 24.9284 28.5352 24.7852 28.3789 24.668C28.2357 24.5378 27.7735 24.375 26.9922 24.1797L25.4102 23.8281C25.2279 23.75 25.0977 23.6198 25.0195 23.4375C24.8633 23.0599 24.7852 22.4284 24.7852 21.543L24.8047 18.9063C24.7656 17.5521 24.7461 16.556 24.7461 15.918L24.7852 12.7149L24.7656 9.31638L24.8047 7.5L24.7852 6.09375V3.84766C24.7852 3.70443 24.7787 3.39844 24.7656 2.92969C24.7526 2.77344 24.7461 2.63021 24.7461 2.5C24.7461 1.9401 24.8698 1.56901 25.1172 1.38672C25.4167 1.26953 25.7878 1.19792 26.2305 1.17187C26.9206 1.11979 27.513 0.996091 28.0078 0.800781C28.0599 0.592451 28.0925 0.358071 28.1055 0.097656C26.3216 0.227861 25.0456 0.292971 24.2774 0.292971C23.0794 0.292971 21.888 0.260421 20.7031 0.195311L19.4141 0.117187C19.2969 0.117187 19.0169 0.149739 18.5742 0.214841C18.5742 0.462241 18.6068 0.683591 18.6719 0.878901C18.8672 0.917971 19.0755 0.950521 19.2969 0.976561C20.5729 1.14583 21.25 1.25 21.3281 1.28906C21.4584 1.36719 21.5495 1.51693 21.6016 1.73828C21.6927 2.10286 21.7383 3.30729 21.7383 5.35156C21.7383 7.47396 21.6992 9.66798 21.6211 11.9336C21.4909 11.9727 21.1198 11.9987 20.5078 12.0117L15.5469 12.168L13.6524 12.1094L10.7813 12.1485C10.7031 12.1485 10.4427 12.1354 9.99998 12.1094C8.37239 12.0313 7.52604 11.9662 7.46094 11.9141L7.38281 10.0781C7.31771 7.83854 7.28516 5.66406 7.28516 3.55469C7.28516 2.40885 7.43489 1.69922 7.73437 1.42578C8.04687 1.13932 9.05599 0.924481 10.7617 0.781251C10.905 0.755211 11.0026 0.709631 11.0547 0.644531C11.1198 0.566401 11.1524 0.462241 11.1524 0.332031C11.1524 0.227861 11.1393 0.117187 11.1133 0C9.66798 0.039062 8.58724 0.084635 7.87109 0.136719C6.41276 0.240881 5.03255 0.292971 3.73047 0.292971L1.89453 0.273441C1.72526 0.273441 1.48437 0.286461 1.17187 0.312501C1.15885 0.455731 1.15234 0.579431 1.15234 0.683591C1.15234 0.774741 1.18489 0.891931 1.25 1.03516C1.48437 1.07422 1.90755 1.11979 2.51953 1.17187C3.3138 1.23698 3.78255 1.30859 3.92578 1.38672C4.06901 1.46484 4.16667 1.59505 4.21875 1.77734C4.27083 1.95963 4.29687 2.61068 4.29687 3.73047C4.29687 4.10807 4.27734 4.79167 4.23828 5.78125C4.19922 6.75781 4.17969 7.66927 4.17969 8.51562V13.8477C4.17969 13.9128 4.16016 14.4466 4.12109 15.4492C4.08203 16.4388 4.0625 17.2656 4.0625 17.9297L4.10156 19.5313L4.08203 20.8985L4.12109 22.3828C4.12109 22.8255 4.02995 23.2617 3.84766 23.6914C3.74349 23.9128 3.56771 24.0886 3.32031 24.2188C3.07292 24.336 2.48698 24.4531 1.5625 24.5703C0.976561 24.6354 0.462241 24.7917 0.019531 25.0391Z" fill="black"/>
<path d="M25.5469 6.17578C25.4818 6.17578 25.332 6.19531 25.0977 6.23437C25.0195 6.3776 24.9805 6.5013 24.9805 6.60547C24.9805 6.69661 25.013 6.8138 25.0781 6.95703C27.0052 7.23047 28.2096 7.58203 28.6914 8.01172C28.9779 8.25911 29.1211 8.85156 29.1211 9.78906V10.1211C29.1211 12.543 29.1471 14.9258 29.1992 17.2696C29.3294 22.2826 29.3945 25.5573 29.3945 27.0938C29.3945 27.5755 29.388 27.9531 29.375 28.2266C29.362 28.6172 29.3555 28.8711 29.3555 28.9883C29.3555 29.5222 29.2904 29.8802 29.1602 30.0625C29.069 30.1797 28.8151 30.2969 28.3984 30.4141L25.8594 30.9024L25.8789 31.4102C26.5039 31.3841 26.8815 31.3711 27.0117 31.3711L29.0625 31.4297L32.5 31.293C33.138 31.293 34.0169 31.3516 35.1367 31.4688C35.7097 31.5339 36.0742 31.5664 36.2305 31.5664C36.4779 31.5664 36.6406 31.5339 36.7188 31.4688C36.8099 31.4167 36.8815 31.293 36.9336 31.0977C36.8555 30.9675 36.7643 30.8828 36.6602 30.8438C36.5951 30.8177 36.211 30.7201 35.5078 30.5508C33.9974 30.2123 33.0859 29.9974 32.7734 29.9063C32.6693 29.5807 32.6172 29.1055 32.6172 28.4805C32.6172 28.2201 32.6302 27.9141 32.6562 27.5625C32.6953 27.211 32.7148 26.9701 32.7148 26.8399L32.4609 17.9141V16.8203C32.3828 16.1693 32.3438 14.5156 32.3438 11.8594C32.3438 11.1302 32.3568 10.5898 32.3828 10.2383L32.4023 9.84766L32.3242 7.64062L32.3438 7.36719C32.6432 7.13281 33.6003 7.01562 35.2149 7.01562C35.7357 7.01562 36.4649 7.1263 37.4024 7.34766C38.3529 7.56901 39.056 7.84245 39.5117 8.16797C40.319 8.74088 40.9701 9.50911 41.4649 10.4727C41.9597 11.4232 42.2071 12.4063 42.2071 13.4219C42.2071 14.4635 41.9727 15.4531 41.5039 16.3906C41.0352 17.3281 40.3386 18.0508 39.4141 18.5586C38.5026 19.0664 37.5326 19.3203 36.5039 19.3203C35.8268 19.3203 35.2669 19.2422 34.8242 19.086C34.6289 19.0078 34.4401 18.9688 34.2578 18.9688C34.1667 19.0078 34.0951 19.0729 34.043 19.1641C34.0951 19.3464 34.2448 19.5222 34.4922 19.6914C35.0781 20.082 35.599 20.349 36.0547 20.4922C36.5104 20.6224 37.0768 20.6875 37.7539 20.6875C40.1758 20.6875 42.1029 19.9453 43.5352 18.461C44.9675 16.9766 45.6836 15.2123 45.6836 13.168C45.6836 11.944 45.3516 10.7135 44.6875 9.47656C44.0365 8.23958 43.1055 7.33463 41.8945 6.76172C40.6836 6.17578 39.056 5.88281 37.0117 5.88281C35.8529 5.88281 34.8373 5.92188 33.9648 6L30.6445 6.19531C29.7201 6.24739 29.1146 6.27344 28.8281 6.27344C28.6328 6.27344 28.2682 6.26693 27.7344 6.2539C26.7188 6.20182 25.9896 6.17578 25.5469 6.17578Z" fill="black"/>
</svg>
