<svg width="20" height="20" viewBox="0 0 20 20" fill="none" xmlns="http://www.w3.org/2000/svg">
<path d="M16.6923 7.9422L10.4423 14.1922C10.3842 14.2503 10.3153 14.2964 10.2394 14.3279C10.1636 14.3593 10.0822 14.3755 10.0001 14.3755C9.91797 14.3755 9.83664 14.3593 9.76077 14.3279C9.68489 14.2964 9.61596 14.2503 9.55792 14.1922L3.30792 7.9422C3.19064 7.82492 3.12476 7.66586 3.12476 7.50001C3.12476 7.33416 3.19064 7.1751 3.30792 7.05782C3.42519 6.94055 3.58425 6.87466 3.7501 6.87466C3.91596 6.87466 4.07502 6.94055 4.19229 7.05782L10.0001 12.8664L15.8079 7.05782C15.866 6.99976 15.9349 6.95369 16.0108 6.92227C16.0867 6.89084 16.168 6.87466 16.2501 6.87466C16.3322 6.87466 16.4135 6.89084 16.4894 6.92227C16.5653 6.95369 16.6342 6.99976 16.6923 7.05782C16.7504 7.11589 16.7964 7.18483 16.8278 7.2607C16.8593 7.33657 16.8755 7.41789 16.8755 7.50001C16.8755 7.58213 16.8593 7.66345 16.8278 7.73932C16.7964 7.81519 16.7504 7.88413 16.6923 7.9422Z" fill="#F7F7F7"/>
</svg>
