<svg width="76" height="61" viewBox="0 0 76 61" fill="none" xmlns="http://www.w3.org/2000/svg">
<rect x="0.5" y="0.5" width="75" height="60" rx="1.5" fill="white"/>
<line x1="8" y1="33.25" x2="32" y2="33.25" stroke="#4D4D4D" stroke-width="0.5"/>
<line x1="8" y1="36.25" x2="32" y2="36.25" stroke="#4D4D4D" stroke-width="0.5"/>
<line x1="8" y1="39.25" x2="32" y2="39.25" stroke="#4D4D4D" stroke-width="0.5"/>
<line x1="8" y1="42.25" x2="32" y2="42.25" stroke="#4D4D4D" stroke-width="0.5"/>
<line x1="8" y1="45.25" x2="20" y2="45.25" stroke="#4D4D4D" stroke-width="0.5"/>
<path d="M44.3636 38.2574C44.2632 38.2574 44.1818 38.176 44.1818 38.0756C44.1818 38.0363 44.1946 37.998 44.2182 37.9665L48.2182 32.6332C48.2784 32.5528 48.3924 32.5366 48.4727 32.5968C48.4865 32.6071 48.4988 32.6194 48.5091 32.6332L50.4167 35.1772L54.0305 29.7571C54.0862 29.6735 54.1991 29.6509 54.2827 29.7066C54.3026 29.72 54.3198 29.7371 54.3331 29.7571L59.8116 37.9747C59.8673 38.0583 59.8447 38.1712 59.7611 38.2269C59.7313 38.2468 59.6962 38.2574 59.6603 38.2574H44.3636ZM45.4545 25.1665C46.2579 25.1665 46.9091 25.8177 46.9091 26.621C46.9091 27.4244 46.2579 28.0756 45.4545 28.0756C44.6512 28.0756 44 27.4244 44 26.621C44 25.8177 44.6512 25.1665 45.4545 25.1665Z" fill="#4D4D4D"/>
<rect x="36.25" y="14.75" width="31.5" height="31.5" rx="3.75" stroke="#4D4D4D" stroke-width="0.5"/>
<rect x="0.5" y="0.5" width="75" height="60" rx="1.5" stroke="#E0E0E0"/>
</svg>
