<svg width="48" height="48" viewBox="0 0 48 48" fill="none" xmlns="http://www.w3.org/2000/svg">
<circle cx="24" cy="24" r="24" fill="#EEEEEE"/>
<path d="M32.25 15.75H15.75C15.3522 15.75 14.9706 15.908 14.6893 16.1893C14.408 16.4706 14.25 16.8522 14.25 17.25V30.75C14.25 31.1478 14.408 31.5294 14.6893 31.8107C14.9706 32.092 15.3522 32.25 15.75 32.25H32.25C32.6478 32.25 33.0294 32.092 33.3107 31.8107C33.592 31.5294 33.75 31.1478 33.75 30.75V17.25C33.75 16.8522 33.592 16.4706 33.3107 16.1893C33.0294 15.908 32.6478 15.75 32.25 15.75ZM32.25 17.25V26.8828L29.8059 24.4397C29.6666 24.3004 29.5013 24.1898 29.3193 24.1144C29.1372 24.039 28.9422 24.0002 28.7452 24.0002C28.5481 24.0002 28.3531 24.039 28.1711 24.1144C27.989 24.1898 27.8237 24.3004 27.6844 24.4397L25.8094 26.3147L21.6844 22.1897C21.4031 21.9086 21.0217 21.7507 20.6241 21.7507C20.2264 21.7507 19.845 21.9086 19.5638 22.1897L15.75 26.0034V17.25H32.25ZM15.75 28.125L20.625 23.25L28.125 30.75H15.75V28.125ZM32.25 30.75H30.2466L26.8716 27.375L28.7466 25.5L32.25 29.0044V30.75ZM25.5 21.375C25.5 21.1525 25.566 20.935 25.6896 20.75C25.8132 20.565 25.9889 20.4208 26.1945 20.3356C26.4 20.2505 26.6262 20.2282 26.8445 20.2716C27.0627 20.315 27.2632 20.4222 27.4205 20.5795C27.5778 20.7368 27.685 20.9373 27.7284 21.1555C27.7718 21.3738 27.7495 21.6 27.6644 21.8055C27.5792 22.0111 27.435 22.1868 27.25 22.3104C27.065 22.434 26.8475 22.5 26.625 22.5C26.3266 22.5 26.0405 22.3815 25.8295 22.1705C25.6185 21.9595 25.5 21.6734 25.5 21.375Z" fill="#2D2D2D"/>
</svg>
