<svg width="76" height="61" viewBox="0 0 76 61" fill="none" xmlns="http://www.w3.org/2000/svg">
<rect x="0.5" y="0.5" width="75" height="60" rx="1.5" fill="white"/>
<path d="M16.3636 38.2574C16.2632 38.2574 16.1818 38.176 16.1818 38.0756C16.1818 38.0363 16.1946 37.998 16.2182 37.9665L20.2182 32.6332C20.2784 32.5528 20.3924 32.5366 20.4727 32.5968C20.4865 32.6071 20.4988 32.6194 20.5091 32.6332L22.4167 35.1772L26.0305 29.7571C26.0862 29.6735 26.1991 29.6509 26.2827 29.7066C26.3026 29.72 26.3198 29.7371 26.3331 29.7571L31.8116 37.9747C31.8673 38.0583 31.8447 38.1712 31.7611 38.2269C31.7313 38.2468 31.6962 38.2574 31.6603 38.2574H16.3636ZM17.4545 25.1665C18.2579 25.1665 18.9091 25.8177 18.9091 26.621C18.9091 27.4244 18.2579 28.0756 17.4545 28.0756C16.6512 28.0756 16 27.4244 16 26.621C16 25.8177 16.6512 25.1665 17.4545 25.1665Z" fill="#4D4D4D"/>
<rect x="8.25" y="14.75" width="31.5" height="31.5" rx="3.75" stroke="#4D4D4D" stroke-width="0.5"/>
<line x1="44" y1="33.25" x2="68" y2="33.25" stroke="#4D4D4D" stroke-width="0.5"/>
<line x1="44" y1="36.25" x2="68" y2="36.25" stroke="#4D4D4D" stroke-width="0.5"/>
<line x1="44" y1="39.25" x2="68" y2="39.25" stroke="#4D4D4D" stroke-width="0.5"/>
<line x1="44" y1="42.25" x2="68" y2="42.25" stroke="#4D4D4D" stroke-width="0.5"/>
<line x1="44" y1="45.25" x2="56" y2="45.25" stroke="#4D4D4D" stroke-width="0.5"/>
<rect x="0.5" y="0.5" width="75" height="60" rx="1.5" stroke="#E0E0E0"/>
</svg>
