<svg width="62" height="61" viewBox="0 0 62 61" fill="none" xmlns="http://www.w3.org/2000/svg">
<rect x="0.5" y="0.5" width="61" height="60" rx="1.5" fill="white"/>
<path d="M23.3636 31.7574C23.2632 31.7574 23.1818 31.676 23.1818 31.5756C23.1818 31.5363 23.1946 31.498 23.2182 31.4665L27.2182 26.1332C27.2784 26.0528 27.3924 26.0366 27.4727 26.0968C27.4865 26.1071 27.4988 26.1194 27.5091 26.1332L29.4167 28.6772L33.0305 23.2571C33.0862 23.1735 33.1991 23.1509 33.2827 23.2066C33.3026 23.22 33.3198 23.2371 33.3331 23.2571L38.8116 31.4747C38.8673 31.5583 38.8447 31.6712 38.7611 31.7269C38.7313 31.7468 38.6962 31.7574 38.6603 31.7574H23.3636ZM24.4545 18.6665C25.2579 18.6665 25.9091 19.3177 25.9091 20.121C25.9091 20.9244 25.2579 21.5756 24.4545 21.5756C23.6512 21.5756 23 20.9244 23 20.121C23 19.3177 23.6512 18.6665 24.4545 18.6665Z" fill="#4D4D4D"/>
<rect x="8.25" y="8.25" width="45.5" height="31.5" rx="3.75" stroke="#4D4D4D" stroke-width="0.5"/>
<line x1="30" y1="43.75" x2="54" y2="43.75" stroke="#4D4D4D" stroke-width="0.5"/>
<line x1="30" y1="46.75" x2="54" y2="46.75" stroke="#4D4D4D" stroke-width="0.5"/>
<line x1="30" y1="49.75" x2="54" y2="49.75" stroke="#4D4D4D" stroke-width="0.5"/>
<line x1="42" y1="52.75" x2="54" y2="52.75" stroke="#4D4D4D" stroke-width="0.5"/>
<rect x="0.5" y="0.5" width="61" height="60" rx="1.5" stroke="#E0E0E0"/>
</svg>
